<svg viewBox="0 0 161 88" xmlns="http://www.w3.org/2000/svg"><g fill="#50d9be"><path d="m111 45.78c.11 0 .07-.36.09-.43-.21.08-.09.53-.09.43z"/><path d="m109.14 46.67.03-.16-.27.39z"/><path d="m107.42 46.66c.16.67.62-.11.92.13l.06.16.13-.54c-.37.08-.85.44-1.11.25z"/><path d="m106.5 45.21c.06.26-.2.23.21.08v-.06z"/><path d="m106.67 45.23c.18 0-.11-.22 0 0z"/><path d="m105.84 45.38.24-.24c0-.15-.27-.19-.19-.3-.24.16-.19.28-.05.54z"/><path d="m105.61 45.87.13-.1c-.03-.07-.06-.09-.13.1z"/><path d="m106 45.56-.26.21c0 .11 0 .32.12-.08-.03.2.03.01.14-.13z"/><path d="m106.15 45.66c.13.15.3.24.06.47.46-.13.39-.56-.06-.47z"/><path d="m107.33 47.36.18.19.15-.22c-.08.11-.34-.18-.33.03z"/><path d="m104.35 45a4.78 4.78 0 0 0 .1.56l.18-.16c-.09-.07-.27-.16-.28-.4z"/><path d="m104.45 45.59-.26.25c.23.03.27-.09.26-.25z"/><path d="m105.57 46.61.43-.51-.52.52z"/><path d="m103.34 45.01.16-.33-.27.5z"/><path d="m102.68 45.07c.11-.27-.15-.46 0-.63-.18.05-.33.28-.47.49.11-.12.26-.09.47.14z"/><path d="m101.93 45.24a1.76 1.76 0 0 0 .24-.31 1 1 0 0 0 -.24.31z"/><path d="m103.74 45.77c0-.09-.06-.32-.21-.41l.1.4z"/><path d="m103.64 45.77h-.22z"/><path d="m103.76 45.77s-.01.05 0 0z"/><path d="m104.88 46.25c-.16.22-.48.46-.17.81.11-.28-.07-.47.17-.81z"/><path d="m103.89 46.27.28.09c0-.1 0-.26 0-.37z"/><path d="m103.75 46.4.14-.13-.1-.03z"/><path d="m102.41 45.62a.49.49 0 0 1 -.4.21 1 1 0 0 0 .48.12c.02-.12.09-.35-.08-.33z"/><path d="m103 45.73s0 .07 0 0z"/><path d="m100.54 45.83s0 .05 0 .07 0 0 0-.07z"/><path d="m102.52 46c.12.08.19 0 .26-.14a.68.68 0 0 1 -.29.06c-.01.08-.01.13.03.08z"/><path d="m101.52 45.43.21.22c-.06-.13-.19-.33-.21-.22z"/><path d="m102.94 45.64c-.02-.1-.02-.06 0 0z"/><path d="m102.94 45.64a1.2 1.2 0 0 0 -.16.25.9.9 0 0 0 .2-.14s.02-.07-.04-.11z"/><path d="m100.09 48.41c0-.37.34-.72.61-.32.27-.28.1-1.5-.14-2.19a.61.61 0 0 1 -.28.54c.09.2.61.47.38.81-.37.19-.3-.13-.48-.33.15.46-.47.68-.39 1.36l.32-.24c.01.1-.11.27-.02.37z"/><path d="m101.09 45.94h.11c-.13-.07-.22-.22-.39-.51a.65.65 0 0 0 -.24.44l.56.06z"/><path d="m101.71 45.89c-.08.41-.36.58-.19 1 .33 0 .23-.34.43-.51-.54.1.16-.23-.23-.46a.75.75 0 0 1 .29-.11 1.21 1.21 0 0 1 -.28-.18s0 .08 0 0a0 0 0 0 1 0 0v.15s0-.1 0-.15a.13.13 0 0 1 0-.06l-.54.23a.88.88 0 0 0 .52.09z"/><path d="m104.42 47.93a.38.38 0 0 1 0-.1c-.05.05-.06.09 0 .1z"/><path d="m104.2 47.68s.07-.22.2-.17 0 .19 0 .32c.07-.11.27-.29 0-.49v.06a1.34 1.34 0 0 1 -.46-.7 4.45 4.45 0 0 0 .26.98z"/><path d="m102.94 46.89-.45.2.23.35v-.21c.28.08.19-.18.22-.34z"/><path d="m100.49 45.63.06-.43-.26.61z"/><path d="m99.9 45.68.02-.37-.15.22z"/><path d="m66.92 50.3-.13.1a.49.49 0 0 0 .13-.1z"/><path d="m67.88 50.32v-.18c-.02.1-.04.17 0 .18z"/><path d="m85.55 45.72c-.19-.34-.41-.88-.39-.46l.06.4a.27.27 0 0 1 .33.06z"/><path d="m75.72 48.16a.61.61 0 0 1 0 .12l.13-.39c0 .11-.07.17-.13.27z"/><path d="m75.58 49.84-.25-.26a1 1 0 0 0 .25.26z"/><path d="m61.7 50.73-.16.41c.24 0 .14-.21.16-.41z"/><path d="m93.92 45.83a.74.74 0 0 0 -.42-.24c.2.23.36.58.42.24z"/><path d="m67.3 46a.33.33 0 0 0 -.12.25.27.27 0 0 0 .12-.25z"/><path d="m93 45.59.09.09a.53.53 0 0 1 .39-.09c-.13-.18-.29-.29-.48 0z"/><path d="m42.75 50.39c-.05.01-.03.01 0 0z"/><path d="m37.22 46.28a.79.79 0 0 1 .23 0s-.11-.06-.23 0z"/><path d="m98.15 47.12a.56.56 0 0 0 -.05.19.5.5 0 0 1 .05-.19z"/><path d="m91.79 48.12c.02.08.02.07 0 0z"/><path d="m97.74 45.69a.61.61 0 0 0 -.16-.12.49.49 0 0 0 .16.12z"/><path d="m97.71 45.5h.11c.02-.03 0-.08-.11 0z"/><path d="m97.38 45.53a.34.34 0 0 1 .2 0s0 0 0-.07z"/><path d="m52.9 49.3c-.15.13-.1.1 0 0z"/><path d="m82.32 50s0 0 0 0z"/><path d="m81.88 50.26c.19-.51.29-.44.44-.34l-.15-1.17z"/><path d="m64.63 50.41.31.37c-.37.6-.65.4-.35.91 0-1.28 1.21-.13 1.25-1.41l.21.27c-.06 0-.07.07-.13.05.4.61.3-.92.82-.74.18.1.3.28.18.44l.4-.32c.12 0 .09.25 0 .22l.62-.1a5.16 5.16 0 0 1 .38-.64c.16.18-.07.13 0 .29l.34-.31a.43.43 0 0 1 -.37.61c.31 1.27.28-.32 1 .42l-.32.16c.21.73.46.46.82.91-.09-.23-.73-1.13-.36-1.45.11.1.24.14.44-.12 0 .46.2.35.44.32v.6c.26-.17.24-.48.4-.75.29.06.35.53.42.92.47.09-.32-.75.23-.86.39.23.66 0 1.13-.38.27.21 0 .37.05.54l.24-.48c.06 0 0 .16 0 .24.2-.19 0-.6.33-.77.09-.66.66 1 1.06.22.09.17 0 .37 0 .6a3.48 3.48 0 0 0 .91-1l.38.39c-.28-.45.08-1 .39-1.42-.1-.22-.19-.41-.24-.5l.5-.32c.06.09 0 .3-.08.55l.1-.14c.17.22.08.57 0 .9l-.18-.37a3.25 3.25 0 0 0 -.21 1.12.35.35 0 0 1 .16-.16.47.47 0 0 0 0 .25c0 .06.07-.07.15-.22l.11.67v-.27l.65.42c.47-.68.87-1.67 1.61-2a3.76 3.76 0 0 0 0 1.39c-.2-.62-.57.26-1 .14.2.06.15.34.1.43l.68-.56c0 .48.15.36.33.56-.14-.94.51-.63.79-.92 0 .32 0 .64-.39.57.37.7.48-1.11.85-.51-.08 0-.13 0-.16.12.19-.28.67-.06.56.22h-.09c.55.11 1.68 0 1.76-.8 0 .11-.07 1-.1 1.13l1-2.69c-.09.68.24 2.32-.21 2.71.13.1.29.21.57 0-.09-.1-.23-1-.1-1.06.33.77.23.41.64 1.06-.13-.14 0-1.22.23-1.19a8.87 8.87 0 0 1 -.06 1.18l.53-1.06a2 2 0 0 0 .09 1.2c0-.21.46 0 .6-.09l-.23-.25c.6.16.59-1.48 1.18-1.43-.07.22-.17 1.35.13 1.48.13-.54.6-2.6 1.13-3l.1.31.4-.35a22.43 22.43 0 0 1 -1.33 3.19c.22.25.06.37.39.34.12.29-.18.44-.28.46l.78.18c0-.63.59-.63.56-1.16l-.84.66c0-.63.49-1.79 1-1.68.14.25-.11 1.12-.1 1.33.07-.22.53-.41.58-.26l-.24.34c.31.24.5-.84.87-.24.13 0 .38.82.4.44a11.85 11.85 0 0 1 -.11-3.49 4.84 4.84 0 0 1 .81 1.05c.21.56-.31 1.34-.13 1.83a1 1 0 0 1 .17-.45c.13.14-.05.53.23.45.05-.64.59.06.14-.54.29-.18.3.13.64.1a2.24 2.24 0 0 1 .58-1.59 1.21 1.21 0 0 0 .08.47c.58.06.89.35 1.43.36 0 .15.31.34.2.62.08-.12.15-.33.32-.35.32.56-.37.09-.13.75 0-.37.44-.51.67-.74-.07-.58-.55-.11-.78.12a2.45 2.45 0 0 1 1-2c.45-.2.19.51.27.4.85.14.72-1.39 1.42-.81.28.5 0 1 .08 1.37-.37.19-.57-.33-.81-.31l.3.24c-.11.17-.36.3-.49.15.23.46 1.43.09 2.08.51.11-.17.31-.35.22-.55l-.21.07c-.19-.41.39-.56.13-.75.28-.29.59-.74 1-.51l.07.58c0-.17-.25-.34-.36-.17.16-.26.59.78.77 0l-.27-.4c.28-.29.62-.9 1-.72-.16-.57-.08.06-.33-.6.21.82-.88 0-.54.83-.25-.77-.44-.33-.77-1 0 .19.12.36-.17.27a.76.76 0 0 1 -.06.16s0 0 0 0a.73.73 0 0 1 .15.29c-.15.43-.61.42-.76.65-.18-.09.07-.22 0-.42l-.23.33c0-.42-.46-.7 0-1h-.37c-.21-.24-.51-.34-.69-.16-.17-.09-.43.47-.28.14l-.58.26v-.1c-.57-.06-1.16.69-1.81-.07a.72.72 0 0 1 -.7.12l-.07-.37c-.24.13-.73-.36-.83 0-.27-1-1.19-.22-1.62-.39v.48a1.77 1.77 0 0 0 -.94.3v.42c-.31.34-.81-.3-1.31-.26 0-.16.16-.12.25 0-.6-.95-1.26.69-1.8 0-.14.15-.24.1-.33 0s0 0 0 0h-.05a2.11 2.11 0 0 0 -.19-.23.81.81 0 0 0 .16.23.88.88 0 0 0 -.42.17l-.07-.46c-.15-.17-.12.21 0 .55a1 1 0 0 0 -.21.27c-.12-.73-.4.25-.57-.53-.11.38-.78.29-.86 1.09 0-.11-.06-.16 0-.16-.17-.1-.35-.19-.5 0l-.36-.4-.37.78a.81.81 0 0 1 -.1-1c-.55.68-.44.26-.91.93v-.37c-.17 0-.43.51-.53.2-.38-.7-1.85-.09-2.81-.75.19 1.09-.44-.49-.48.36-.06-.26-.19-.41 0-.63-.49.25-.73-.41-1.07.3-.06-.26.1-.38.06-.53 0 .05-.16.22-.21.07s.07-.22.15-.33c-.5 0-.55.84-.59 1.59-.25-.35-.38-.31-.56.19-.09-.25-.24-.5.07-.59-.17 0-1.06-.36-1.08.24-.06-.15-.24 0-.29 0a2.46 2.46 0 0 0 -.81 0l.1.1c-.15.72-.32.16-.63.25v-.08c-.71-.52-.3.25-1-.34v.45c-.06 1-.62-.57-1-.2l.15.25c-.22.34-.62-1.31-.85-1.44 0-.08.08-.13.15-.19-.59-.58-.08.59-.51.72-.08-.31.1-.81-.19-.87-.15-.25-.85 1-1.25.43.08.24.17.49 0 .67s-.84-.92-1.12-.15a.52.52 0 0 1 -.06-.19c-.23.2-.77.33-.91.75-.22-1.56-1.47.76-1.47-.68l-.73.08v-.15c-.47-.1-.63.25-.79.59-.11-.09 0-.23 0-.3-.69-.29-.75-.23-1.33.48l-.06-.46c-.15.27-1-.73-1.65-.19a.52.52 0 0 1 .07-.21c-.75.55-1.8-1.29-2.07.41l-.5.41c.64.14-.09.74.17 1-.25.1-.65-.51-.34-.6v.09c.11-.89-.8-.32-.78-.92-1.27.05-2.5-.44-3.68-.48l.13.69h-.41c-.11-.16-.14-.54.15-.51-.15-.39-.49.32-.5.47-.58-.28.22-.8 0-.82l-.24.06v.08c-.19.28-.21.58-.57.54s-.11-.42-.2-.45 0-.07-.13 0l-.42-.11.2.54c-.23.27-.48 0-.24.59-.36-1-1.94-.34-2.16-.63a1 1 0 0 1 -1 .34c.1.11.16.72-.18.65.12-1.26-.62-.55-.9-1.46.25.6-1 .15-.58 1-.29-.11 0-.48-.23-.77-.68.49-1.5-.32-2.33-.16 0 .17.13.42 0 .67l-.58-.77c-.17.08-.16 1-.46.38 0 .14.11.35 0 .4-1.64-.8-3.35.66-5-.85.22.32.07.35-.1.36.11.08 0 .41 0 .64l-.7-.63c-.12.63-.74 0-.81.64l.22-.11c-.3.71.41 1.56.36 2.46.33-.79.87 1.19 1.41 0 .12.19-.1.29 0 .5.14-.38.3-.46.61-.29v.09c.86-.09 1.23.29 2.19.54l-.07-.44c.21.06.25.2.35.31.24-.68-.58 0-.37-.78.28.9 1.47 0 1.65 1 .32 0-.09-.51.23-.51l.08.28.08-.36c.21.06.32.41.32.64 0 0-.14.07-.19.09.27.33.76-.11.85 0l-.3-.18c.87-.26 1.93.11 2.77-.46l-.12-.18c.64-.39.51.23 1.21.05a.56.56 0 0 1 .52-.29c-.18.25.34.48.1.75.7-.41.35-.32.81-1.11l.1.35c.16-.31.17-.48.52-.57-.28.3.23.53-.09.93.73.76 1.09-.77 1.43.34.34-1-.64-.53-.45-.74-.16-.31.28-.72.51-.62s.4 1.23 1 1.21c-.06 0-.06.07-.12.07.22.24.43-.34.7.06.16-.58.36 0 .4-.71l-.54.17c.31-.19.6-1.06 1.1-.64a1.38 1.38 0 0 1 -.29.46c.15.22.29-.15.44.08 0 .74-.66.16-1 .73.16.31.62-.54.46.27.24-1 .58.13 1-.66v.45c.06-.07.19-.28.31-.27l-.21.58c.32-.5.62.43.94.16-.66 0-.15-.54-.43-.86.81-.6.47 1.16 1.37.95-.12.06-.46-.27-.27-.47a1.19 1.19 0 0 1 .51.49c.59-.09-.1-.46.16-.73.2.54.29-.22.55-.4v.46c.68.29.18-.95.79-.6l-.26.63.32-.16-.06.52c.34-.39.45-.29.79-.14-.08-.32.05-.82.35-.84.2.27-.12.43.31.37-.1.28-.2.64-.39.22 0 .15-.09.28-.11.43.22.31.55.07.71.07a.32.32 0 0 1 -.17-.11l.62-.63a.41.41 0 0 1 0 .44c.12-.05.21-.25.39-.29 0 .36 0 .75-.29.92l.59-.41c0 .16.3.44.22.58.33.21.81-.72 1.24-.43a.37.37 0 0 1 .16-.2c.41.09.77.54 1.25 0l.28.67c.38-.15-.37-.84.26-1.09.44-.21.16.57.32.75.22-.33.61-1 1-.47-.2.2-.3.1-.43.15zm4.67-.29c-.09.1-.27.39-.33.12.1-.52.18-.24.33-.12zm7.11-1.12c-.07.15-.18.07-.29-.1a.26.26 0 0 1 .29.1zm19.78-3.16s0 0 0 0c-.19-.12-.14-.05 0 .03zm.42.2a.21.21 0 0 0 0-.19c0 .11-.12.12-.23.09.05.15.11.23.23.13zm-45 .18.08.12c-.22.16-.17.04-.11-.09z"/><path d="m75.6 49.65a1 1 0 0 1 0-.25.23.23 0 0 0 0 .25z"/><path d="m61.72 50.65a.19.19 0 0 0 0 .08z"/><path d="m90.12 49.91a.42.42 0 0 1 -.17-.23.19.19 0 0 0 .17.23z"/><path d="m98.83 45.3-.26.12c.13 0 .17.07.24.15-.01-.11-.06-.26.02-.27z"/><path d="m101.17 48.1c0-.05.08 0 .12-.06v-.21c-.18.01-.29.17-.12.27z"/><path d="m99.08 46.8c0 .39.19.26.38.19.02-.54-.18-.36-.38-.19z"/><path d="m99.5 47a.55.55 0 0 1 .18 0c.02-.25-.07-.08-.18 0z"/><path d="m97.14 45.82c.09.09.06-.49.11-.34.1-.48-.59.59-.11.34z"/><path d="m99.23 48.06-.06-.47-.11.38z"/><path d="m97.75 47.72.3.13a.17.17 0 0 1 .08-.16c-.13-.02-.39-.11-.38.03z"/><path d="m98.13 47.69a.25.25 0 0 0 .24-.08.45.45 0 0 0 -.24.08z"/><path d="m98.82 48.2-.09-.1-.21-.03z"/><path d="m94.52 47.63-.33.13c0 .16 0 .26.18.2s.2-.18.15-.33z"/><path d="m95.51 48.91a.81.81 0 0 1 -.15-.35v.58z"/><path d="m94.55 49.05c0 .16-.47.47-.06.43.04-.16.36-.3.06-.43z"/><path d="m89.61 48.31.08-.01-.01-.95z"/><path d="m85.25 50.6c.39.23.09-.59.44-.3.1-.23-.28-.24-.19-.43-.23.24-.36.13-.25.73z"/><path d="m85.5 49.87a.65.65 0 0 0 .12-.15.45.45 0 0 0 -.12.15z"/><path d="m36.31 45.76-.25-.2.16.32z"/><path d="m35.83 46.47-.06-.61-.15.55c.06-.02.17-.08.21.06z"/><path d="m70 51.35v-.15c0-.16-.1-.17-.22-.19z"/><path d="m66.61 50.89.06.02-.11-.56z"/><path d="m63.76 51.6c.12 0 .25-.1.37-.08-.25.1-.4-.61-.37.08z"/></g></svg>