<svg id="Group_211" data-name="Group 211" xmlns="http://www.w3.org/2000/svg" width="15.775" height="15.781" viewBox="0 0 15.775 15.781">
  <path id="Path_920" data-name="Path 920" d="M16.857-501.115a7.8,7.8,0,0,0-2.546.8,7.845,7.845,0,0,0-3.52,3.571,8,8,0,0,0-.724,2.228,11.706,11.706,0,0,0,0,2.495,8.005,8.005,0,0,0,.724,2.228,7.923,7.923,0,0,0,4.914,4.125,8.12,8.12,0,0,0,4.354,0,7.949,7.949,0,0,0,4.873-4.039,7.524,7.524,0,0,0,.844-3.561,7.558,7.558,0,0,0-.847-3.571,7.845,7.845,0,0,0-3.571-3.52,7.738,7.738,0,0,0-2.143-.707A11.553,11.553,0,0,0,16.857-501.115Zm1.466,1.213a6.587,6.587,0,0,1,4.254,1.934,6.555,6.555,0,0,1,1.869,3.67,7.549,7.549,0,0,1,.014,1.982,6.662,6.662,0,0,1-5.621,5.621,7.547,7.547,0,0,1-1.982-.014,6.638,6.638,0,0,1-4.958-3.677,6.634,6.634,0,0,1,1.288-7.583,6.667,6.667,0,0,1,4.172-1.931c.2-.017.393-.031.42-.031S18.053-499.919,18.323-499.9Z" transform="translate(-10 501.156)"/>
  <path id="Path_921" data-name="Path 921" d="M485.488-295.887a1.11,1.11,0,0,0-.677.656,1.281,1.281,0,0,0-.041.345,1.105,1.105,0,0,0,1.859.714.9.9,0,0,0,.342-.731.968.968,0,0,0-.345-.765A1.2,1.2,0,0,0,485.488-295.887Z" transform="translate(-477.127 299.249)"/>
  <path id="Path_922" data-name="Path 922" d="M380.136-108.688a4.858,4.858,0,0,0-.929.273c-.41.15-.42.157-.454.277a1.1,1.1,0,0,0-.061.383,2.19,2.19,0,0,0,.219-.072,1.5,1.5,0,0,1,.848-.017c.157.065.226.215.226.5a6.754,6.754,0,0,1-.372,1.668,5.027,5.027,0,0,0-.338,1.756.889.889,0,0,0,.113.465,1.237,1.237,0,0,0,.974.625,3.125,3.125,0,0,0,1.726-.321l.273-.109.061-.232a1.2,1.2,0,0,0,.051-.25,1.048,1.048,0,0,0-.232.058,1.713,1.713,0,0,1-.916,0,.559.559,0,0,1-.178-.489,6.55,6.55,0,0,1,.376-1.681,5.342,5.342,0,0,0,.335-1.756,1.131,1.131,0,0,0-1-1.059A2.613,2.613,0,0,0,380.136-108.688Z" transform="translate(-372.75 115.024)"/>
</svg>
